<mxfile host="app.diagrams.net" modified="2024-07-04T11:29:00.668Z" agent="Mozilla/5.0 (Windows NT 10.0; Win64; x64) AppleWebKit/537.36 (KHTML, like Gecko) Chrome/126.0.0.0 Safari/537.36" version="24.5.5" etag="CJh4XQ-UwEhMb3VGlU3D" type="github">
  <diagram name="第 1 页" id="WUcmKmHW8bBux18RpljR">
    <mxGraphModel>
      <root>
        <mxCell id="0" />
        <mxCell id="1" parent="0" />
        <mxCell id="2" value="需求分析与系统设计" style="whiteSpace=wrap;strokeWidth=2;" vertex="1" parent="1">
          <mxGeometry x="310" width="160" height="34" as="geometry" />
        </mxCell>
        <mxCell id="3" value="确定系统需求和功能模块，进行系统架构设计" style="whiteSpace=wrap;strokeWidth=2;" vertex="1" parent="1">
          <mxGeometry y="84" width="337" height="34" as="geometry" />
        </mxCell>
        <mxCell id="4" value="设计数据采集、处理和融合的技术方案，制定详细的实施计划" style="whiteSpace=wrap;strokeWidth=2;" vertex="1" parent="1">
          <mxGeometry x="459" y="84" width="447" height="34" as="geometry" />
        </mxCell>
        <mxCell id="5" value="数据需求分析" style="whiteSpace=wrap;strokeWidth=2;" vertex="1" parent="1">
          <mxGeometry x="106" y="168" width="113" height="34" as="geometry" />
        </mxCell>
        <mxCell id="6" value="功能模块设计" style="whiteSpace=wrap;strokeWidth=2;" vertex="1" parent="1">
          <mxGeometry x="269" y="168" width="113" height="34" as="geometry" />
        </mxCell>
        <mxCell id="7" value="数据采集技术方案设计" style="whiteSpace=wrap;strokeWidth=2;" vertex="1" parent="1">
          <mxGeometry x="432" y="168" width="177" height="34" as="geometry" />
        </mxCell>
        <mxCell id="8" value="数据处理技术方案设计" style="whiteSpace=wrap;strokeWidth=2;" vertex="1" parent="1">
          <mxGeometry x="659" y="168" width="177" height="34" as="geometry" />
        </mxCell>
        <mxCell id="9" value="数据融合技术方案设计" style="whiteSpace=wrap;strokeWidth=2;" vertex="1" parent="1">
          <mxGeometry x="921" y="168" width="177" height="34" as="geometry" />
        </mxCell>
        <mxCell id="10" value="数据清洗" style="whiteSpace=wrap;strokeWidth=2;" vertex="1" parent="1">
          <mxGeometry x="511" y="252" width="81" height="34" as="geometry" />
        </mxCell>
        <mxCell id="11" value="数据转换" style="whiteSpace=wrap;strokeWidth=2;" vertex="1" parent="1">
          <mxGeometry x="642" y="252" width="81" height="34" as="geometry" />
        </mxCell>
        <mxCell id="12" value="数据分析" style="whiteSpace=wrap;strokeWidth=2;" vertex="1" parent="1">
          <mxGeometry x="773" y="252" width="81" height="34" as="geometry" />
        </mxCell>
        <mxCell id="13" value="数据集成" style="whiteSpace=wrap;strokeWidth=2;" vertex="1" parent="1">
          <mxGeometry x="904" y="252" width="81" height="34" as="geometry" />
        </mxCell>
        <mxCell id="14" value="数据整合" style="whiteSpace=wrap;strokeWidth=2;" vertex="1" parent="1">
          <mxGeometry x="1035" y="252" width="81" height="34" as="geometry" />
        </mxCell>
        <mxCell id="15" value="数据校验" style="whiteSpace=wrap;strokeWidth=2;" vertex="1" parent="1">
          <mxGeometry x="838" y="336" width="81" height="34" as="geometry" />
        </mxCell>
        <mxCell id="16" value="数据同步" style="whiteSpace=wrap;strokeWidth=2;" vertex="1" parent="1">
          <mxGeometry x="969" y="336" width="80" height="34" as="geometry" />
        </mxCell>
        <mxCell id="17" value="" style="curved=1;startArrow=none;endArrow=block;exitX=0;exitY=0.95;entryX=0.5;entryY=0;" edge="1" parent="1" source="2" target="3">
          <mxGeometry relative="1" as="geometry">
            <Array as="points">
              <mxPoint x="169" y="59" />
            </Array>
          </mxGeometry>
        </mxCell>
        <mxCell id="18" value="" style="curved=1;startArrow=none;endArrow=block;exitX=1;exitY=0.84;entryX=0.5;entryY=0;" edge="1" parent="1" source="2" target="4">
          <mxGeometry relative="1" as="geometry">
            <Array as="points">
              <mxPoint x="682" y="59" />
            </Array>
          </mxGeometry>
        </mxCell>
        <mxCell id="19" value="" style="curved=1;startArrow=none;endArrow=block;exitX=0.49;exitY=1;entryX=0.5;entryY=0;" edge="1" parent="1" source="3" target="5">
          <mxGeometry relative="1" as="geometry">
            <Array as="points">
              <mxPoint x="163" y="143" />
            </Array>
          </mxGeometry>
        </mxCell>
        <mxCell id="20" value="" style="curved=1;startArrow=none;endArrow=block;exitX=0.69;exitY=1;entryX=0.5;entryY=0;" edge="1" parent="1" source="3" target="6">
          <mxGeometry relative="1" as="geometry">
            <Array as="points">
              <mxPoint x="326" y="143" />
            </Array>
          </mxGeometry>
        </mxCell>
        <mxCell id="21" value="" style="curved=1;startArrow=none;endArrow=block;exitX=0.35;exitY=1;entryX=0.5;entryY=0;" edge="1" parent="1" source="4" target="7">
          <mxGeometry relative="1" as="geometry">
            <Array as="points">
              <mxPoint x="521" y="143" />
            </Array>
          </mxGeometry>
        </mxCell>
        <mxCell id="22" value="" style="curved=1;startArrow=none;endArrow=block;exitX=0.56;exitY=1;entryX=0.5;entryY=0;" edge="1" parent="1" source="4" target="8">
          <mxGeometry relative="1" as="geometry">
            <Array as="points">
              <mxPoint x="748" y="143" />
            </Array>
          </mxGeometry>
        </mxCell>
        <mxCell id="23" value="" style="curved=1;startArrow=none;endArrow=block;exitX=0.8;exitY=1;entryX=0.5;entryY=0;" edge="1" parent="1" source="4" target="9">
          <mxGeometry relative="1" as="geometry">
            <Array as="points">
              <mxPoint x="1010" y="143" />
            </Array>
          </mxGeometry>
        </mxCell>
        <mxCell id="24" value="" style="curved=1;startArrow=none;endArrow=block;exitX=0.05;exitY=1;entryX=0.49;entryY=0;" edge="1" parent="1" source="8" target="10">
          <mxGeometry relative="1" as="geometry">
            <Array as="points">
              <mxPoint x="551" y="227" />
            </Array>
          </mxGeometry>
        </mxCell>
        <mxCell id="25" value="" style="curved=1;startArrow=none;endArrow=block;exitX=0.35;exitY=1;entryX=0.49;entryY=0;" edge="1" parent="1" source="8" target="11">
          <mxGeometry relative="1" as="geometry">
            <Array as="points">
              <mxPoint x="682" y="227" />
            </Array>
          </mxGeometry>
        </mxCell>
        <mxCell id="26" value="" style="curved=1;startArrow=none;endArrow=block;exitX=0.65;exitY=1;entryX=0.49;entryY=0;" edge="1" parent="1" source="8" target="12">
          <mxGeometry relative="1" as="geometry">
            <Array as="points">
              <mxPoint x="813" y="227" />
            </Array>
          </mxGeometry>
        </mxCell>
        <mxCell id="27" value="" style="curved=1;startArrow=none;endArrow=block;exitX=0.35;exitY=1;entryX=0.49;entryY=0;" edge="1" parent="1" source="9" target="13">
          <mxGeometry relative="1" as="geometry">
            <Array as="points">
              <mxPoint x="944" y="227" />
            </Array>
          </mxGeometry>
        </mxCell>
        <mxCell id="28" value="" style="curved=1;startArrow=none;endArrow=block;exitX=0.65;exitY=1;entryX=0.49;entryY=0;" edge="1" parent="1" source="9" target="14">
          <mxGeometry relative="1" as="geometry">
            <Array as="points">
              <mxPoint x="1075" y="227" />
            </Array>
          </mxGeometry>
        </mxCell>
        <mxCell id="29" value="" style="curved=1;startArrow=none;endArrow=block;exitX=0.17;exitY=1;entryX=0.5;entryY=0;" edge="1" parent="1" source="13" target="15">
          <mxGeometry relative="1" as="geometry">
            <Array as="points">
              <mxPoint x="879" y="311" />
            </Array>
          </mxGeometry>
        </mxCell>
        <mxCell id="30" value="" style="curved=1;startArrow=none;endArrow=block;exitX=0.82;exitY=1;entryX=0.5;entryY=0;" edge="1" parent="1" source="13" target="16">
          <mxGeometry relative="1" as="geometry">
            <Array as="points">
              <mxPoint x="1009" y="311" />
            </Array>
          </mxGeometry>
        </mxCell>
      </root>
    </mxGraphModel>
  </diagram>
</mxfile>
